<?xml version="1.0" encoding="UTF-8" standalone="no"?>
<!DOCTYPE svg PUBLIC "-//W3C//DTD SVG 1.1//EN"
 "http://www.w3.org/Graphics/SVG/1.1/DTD/svg11.dtd">
<!-- Generated by graphviz version 2.43.0 (0)
 -->
<!-- Title: %3 Pages: 1 -->
<svg width="1785pt" height="476pt"
 viewBox="0.00 0.00 1784.50 476.00" xmlns="http://www.w3.org/2000/svg" xmlns:xlink="http://www.w3.org/1999/xlink">
<g id="graph0" class="graph" transform="scale(1 1) rotate(0) translate(4 472)">
<title>%3</title>
<polygon fill="white" stroke="transparent" points="-4,4 -4,-472 1780.5,-472 1780.5,4 -4,4"/>
<!-- [root] cloudflare_record.dozer_ipv4 -->
<g id="node1" class="node">
<title>[root] cloudflare_record.dozer_ipv4</title>
<polygon fill="none" stroke="black" points="406,-324 191,-324 191,-288 406,-288 406,-324"/>
<text text-anchor="middle" x="298.5" y="-302.3" font-family="Times-Roman" font-size="14.00">cloudflare_record.dozer_ipv4</text>
</g>
<!-- [root] cloudflare_zone.qt_rs -->
<g id="node6" class="node">
<title>[root] cloudflare_zone.qt_rs</title>
<polygon fill="none" stroke="black" points="613.5,-252 449.5,-252 449.5,-216 613.5,-216 613.5,-252"/>
<text text-anchor="middle" x="531.5" y="-230.3" font-family="Times-Roman" font-size="14.00">cloudflare_zone.qt_rs</text>
</g>
<!-- [root] cloudflare_record.dozer_ipv4&#45;&gt;[root] cloudflare_zone.qt_rs -->
<g id="edge1" class="edge">
<title>[root] cloudflare_record.dozer_ipv4&#45;&gt;[root] cloudflare_zone.qt_rs</title>
<path fill="none" stroke="black" d="M355.2,-287.97C388.18,-278.06 429.93,-265.51 464.53,-255.12"/>
<polygon fill="black" stroke="black" points="465.98,-258.34 474.55,-252.11 463.96,-251.64 465.98,-258.34"/>
</g>
<!-- [root] digitalocean_droplet.dozer -->
<g id="node7" class="node">
<title>[root] digitalocean_droplet.dozer</title>
<polygon fill="none" stroke="black" points="1091.5,-252 891.5,-252 891.5,-216 1091.5,-216 1091.5,-252"/>
<text text-anchor="middle" x="991.5" y="-230.3" font-family="Times-Roman" font-size="14.00">digitalocean_droplet.dozer</text>
</g>
<!-- [root] cloudflare_record.dozer_ipv4&#45;&gt;[root] digitalocean_droplet.dozer -->
<g id="edge2" class="edge">
<title>[root] cloudflare_record.dozer_ipv4&#45;&gt;[root] digitalocean_droplet.dozer</title>
<path fill="none" stroke="black" d="M406.22,-289.01C409.01,-288.66 411.77,-288.33 414.5,-288 576.59,-268.69 765.03,-252.57 881.28,-243.35"/>
<polygon fill="black" stroke="black" points="881.57,-246.84 891.26,-242.56 881.01,-239.86 881.57,-246.84"/>
</g>
<!-- [root] cloudflare_record.dozer_ipv6 -->
<g id="node2" class="node">
<title>[root] cloudflare_record.dozer_ipv6</title>
<polygon fill="none" stroke="black" points="639,-324 424,-324 424,-288 639,-288 639,-324"/>
<text text-anchor="middle" x="531.5" y="-302.3" font-family="Times-Roman" font-size="14.00">cloudflare_record.dozer_ipv6</text>
</g>
<!-- [root] cloudflare_record.dozer_ipv6&#45;&gt;[root] cloudflare_zone.qt_rs -->
<g id="edge3" class="edge">
<title>[root] cloudflare_record.dozer_ipv6&#45;&gt;[root] cloudflare_zone.qt_rs</title>
<path fill="none" stroke="black" d="M531.5,-287.7C531.5,-279.98 531.5,-270.71 531.5,-262.11"/>
<polygon fill="black" stroke="black" points="535,-262.1 531.5,-252.1 528,-262.1 535,-262.1"/>
</g>
<!-- [root] cloudflare_record.dozer_ipv6&#45;&gt;[root] digitalocean_droplet.dozer -->
<g id="edge4" class="edge">
<title>[root] cloudflare_record.dozer_ipv6&#45;&gt;[root] digitalocean_droplet.dozer</title>
<path fill="none" stroke="black" d="M639.06,-288.63C711.84,-277.56 807.71,-262.97 881.08,-251.8"/>
<polygon fill="black" stroke="black" points="881.92,-255.22 891.28,-250.25 880.87,-248.3 881.92,-255.22"/>
</g>
<!-- [root] cloudflare_record.qt_rs_ipv4 -->
<g id="node3" class="node">
<title>[root] cloudflare_record.qt_rs_ipv4</title>
<polygon fill="none" stroke="black" points="868,-324 657,-324 657,-288 868,-288 868,-324"/>
<text text-anchor="middle" x="762.5" y="-302.3" font-family="Times-Roman" font-size="14.00">cloudflare_record.qt_rs_ipv4</text>
</g>
<!-- [root] cloudflare_record.qt_rs_ipv4&#45;&gt;[root] cloudflare_zone.qt_rs -->
<g id="edge5" class="edge">
<title>[root] cloudflare_record.qt_rs_ipv4&#45;&gt;[root] cloudflare_zone.qt_rs</title>
<path fill="none" stroke="black" d="M706.29,-287.97C673.59,-278.06 632.2,-265.51 597.9,-255.12"/>
<polygon fill="black" stroke="black" points="598.55,-251.66 587.97,-252.11 596.52,-258.36 598.55,-251.66"/>
</g>
<!-- [root] cloudflare_record.qt_rs_ipv4&#45;&gt;[root] digitalocean_droplet.dozer -->
<g id="edge6" class="edge">
<title>[root] cloudflare_record.qt_rs_ipv4&#45;&gt;[root] digitalocean_droplet.dozer</title>
<path fill="none" stroke="black" d="M818.23,-287.97C850.64,-278.06 891.68,-265.51 925.68,-255.12"/>
<polygon fill="black" stroke="black" points="926.98,-258.38 935.52,-252.11 924.94,-251.69 926.98,-258.38"/>
</g>
<!-- [root] cloudflare_record.qt_rs_ipv6 -->
<g id="node4" class="node">
<title>[root] cloudflare_record.qt_rs_ipv6</title>
<polygon fill="none" stroke="black" points="1097,-324 886,-324 886,-288 1097,-288 1097,-324"/>
<text text-anchor="middle" x="991.5" y="-302.3" font-family="Times-Roman" font-size="14.00">cloudflare_record.qt_rs_ipv6</text>
</g>
<!-- [root] cloudflare_record.qt_rs_ipv6&#45;&gt;[root] cloudflare_zone.qt_rs -->
<g id="edge7" class="edge">
<title>[root] cloudflare_record.qt_rs_ipv6&#45;&gt;[root] cloudflare_zone.qt_rs</title>
<path fill="none" stroke="black" d="M885.97,-288.94C806.76,-276.89 699.38,-260.55 623.63,-249.02"/>
<polygon fill="black" stroke="black" points="624.04,-245.54 613.62,-247.5 622.98,-252.46 624.04,-245.54"/>
</g>
<!-- [root] cloudflare_record.qt_rs_ipv6&#45;&gt;[root] digitalocean_droplet.dozer -->
<g id="edge8" class="edge">
<title>[root] cloudflare_record.qt_rs_ipv6&#45;&gt;[root] digitalocean_droplet.dozer</title>
<path fill="none" stroke="black" d="M991.5,-287.7C991.5,-279.98 991.5,-270.71 991.5,-262.11"/>
<polygon fill="black" stroke="black" points="995,-262.1 991.5,-252.1 988,-262.1 995,-262.1"/>
</g>
<!-- [root] cloudflare_record.www -->
<g id="node5" class="node">
<title>[root] cloudflare_record.www</title>
<polygon fill="none" stroke="black" points="173,-324 0,-324 0,-288 173,-288 173,-324"/>
<text text-anchor="middle" x="86.5" y="-302.3" font-family="Times-Roman" font-size="14.00">cloudflare_record.www</text>
</g>
<!-- [root] cloudflare_record.www&#45;&gt;[root] cloudflare_zone.qt_rs -->
<g id="edge9" class="edge">
<title>[root] cloudflare_record.www&#45;&gt;[root] cloudflare_zone.qt_rs</title>
<path fill="none" stroke="black" d="M173.2,-289.39C176,-288.91 178.77,-288.45 181.5,-288 268.77,-273.59 368.53,-258.63 439.16,-248.29"/>
<polygon fill="black" stroke="black" points="439.98,-251.71 449.37,-246.8 438.97,-244.78 439.98,-251.71"/>
</g>
<!-- [root] provider.cloudflare -->
<g id="node13" class="node">
<title>[root] provider.cloudflare</title>
<polygon fill="none" stroke="black" points="531.5,-180 397.11,-162 531.5,-144 665.89,-162 531.5,-180"/>
<text text-anchor="middle" x="531.5" y="-158.3" font-family="Times-Roman" font-size="14.00">provider.cloudflare</text>
</g>
<!-- [root] cloudflare_zone.qt_rs&#45;&gt;[root] provider.cloudflare -->
<g id="edge10" class="edge">
<title>[root] cloudflare_zone.qt_rs&#45;&gt;[root] provider.cloudflare</title>
<path fill="none" stroke="black" d="M531.5,-215.7C531.5,-207.98 531.5,-198.71 531.5,-190.11"/>
<polygon fill="black" stroke="black" points="535,-190.1 531.5,-180.1 528,-190.1 535,-190.1"/>
</g>
<!-- [root] digitalocean_ssh_key.default -->
<g id="node11" class="node">
<title>[root] digitalocean_ssh_key.default</title>
<polygon fill="none" stroke="black" points="1098,-180 885,-180 885,-144 1098,-144 1098,-180"/>
<text text-anchor="middle" x="991.5" y="-158.3" font-family="Times-Roman" font-size="14.00">digitalocean_ssh_key.default</text>
</g>
<!-- [root] digitalocean_droplet.dozer&#45;&gt;[root] digitalocean_ssh_key.default -->
<g id="edge11" class="edge">
<title>[root] digitalocean_droplet.dozer&#45;&gt;[root] digitalocean_ssh_key.default</title>
<path fill="none" stroke="black" d="M991.5,-215.7C991.5,-207.98 991.5,-198.71 991.5,-190.11"/>
<polygon fill="black" stroke="black" points="995,-190.1 991.5,-180.1 988,-190.1 995,-190.1"/>
</g>
<!-- [root] digitalocean_firewall.default -->
<g id="node8" class="node">
<title>[root] digitalocean_firewall.default</title>
<polygon fill="none" stroke="black" points="1325.5,-324 1115.5,-324 1115.5,-288 1325.5,-288 1325.5,-324"/>
<text text-anchor="middle" x="1220.5" y="-302.3" font-family="Times-Roman" font-size="14.00">digitalocean_firewall.default</text>
</g>
<!-- [root] digitalocean_firewall.default&#45;&gt;[root] digitalocean_droplet.dozer -->
<g id="edge12" class="edge">
<title>[root] digitalocean_firewall.default&#45;&gt;[root] digitalocean_droplet.dozer</title>
<path fill="none" stroke="black" d="M1164.77,-287.97C1132.36,-278.06 1091.32,-265.51 1057.32,-255.12"/>
<polygon fill="black" stroke="black" points="1058.06,-251.69 1047.48,-252.11 1056.02,-258.38 1058.06,-251.69"/>
</g>
<!-- [root] local.all_ips -->
<g id="node12" class="node">
<title>[root] local.all_ips</title>
<polygon fill="none" stroke="black" points="1478,-252 1389,-252 1389,-216 1484,-216 1484,-246 1478,-252"/>
<polyline fill="none" stroke="black" points="1478,-252 1478,-246 "/>
<polyline fill="none" stroke="black" points="1484,-246 1478,-246 "/>
<text text-anchor="middle" x="1436.5" y="-230.3" font-family="Times-Roman" font-size="14.00">local.all_ips</text>
</g>
<!-- [root] digitalocean_firewall.default&#45;&gt;[root] local.all_ips -->
<g id="edge13" class="edge">
<title>[root] digitalocean_firewall.default&#45;&gt;[root] local.all_ips</title>
<path fill="none" stroke="black" d="M1273.06,-287.97C1305.09,-277.59 1346.04,-264.32 1378.94,-253.65"/>
<polygon fill="black" stroke="black" points="1380.44,-256.85 1388.87,-250.44 1378.28,-250.19 1380.44,-256.85"/>
</g>
<!-- [root] digitalocean_firewall.ssh -->
<g id="node9" class="node">
<title>[root] digitalocean_firewall.ssh</title>
<polygon fill="none" stroke="black" points="1529,-324 1344,-324 1344,-288 1529,-288 1529,-324"/>
<text text-anchor="middle" x="1436.5" y="-302.3" font-family="Times-Roman" font-size="14.00">digitalocean_firewall.ssh</text>
</g>
<!-- [root] digitalocean_firewall.ssh&#45;&gt;[root] digitalocean_droplet.dozer -->
<g id="edge14" class="edge">
<title>[root] digitalocean_firewall.ssh&#45;&gt;[root] digitalocean_droplet.dozer</title>
<path fill="none" stroke="black" d="M1343.94,-289.52C1340.76,-289.01 1337.6,-288.5 1334.5,-288 1256.83,-275.53 1169.18,-261.99 1101.93,-251.72"/>
<polygon fill="black" stroke="black" points="1102.15,-248.22 1091.73,-250.17 1101.09,-255.14 1102.15,-248.22"/>
</g>
<!-- [root] digitalocean_firewall.ssh&#45;&gt;[root] local.all_ips -->
<g id="edge15" class="edge">
<title>[root] digitalocean_firewall.ssh&#45;&gt;[root] local.all_ips</title>
<path fill="none" stroke="black" d="M1436.5,-287.7C1436.5,-279.98 1436.5,-270.71 1436.5,-262.11"/>
<polygon fill="black" stroke="black" points="1440,-262.1 1436.5,-252.1 1433,-262.1 1440,-262.1"/>
</g>
<!-- [root] digitalocean_firewall.wireguard -->
<g id="node10" class="node">
<title>[root] digitalocean_firewall.wireguard</title>
<polygon fill="none" stroke="black" points="1776.5,-324 1546.5,-324 1546.5,-288 1776.5,-288 1776.5,-324"/>
<text text-anchor="middle" x="1661.5" y="-302.3" font-family="Times-Roman" font-size="14.00">digitalocean_firewall.wireguard</text>
</g>
<!-- [root] digitalocean_firewall.wireguard&#45;&gt;[root] digitalocean_droplet.dozer -->
<g id="edge16" class="edge">
<title>[root] digitalocean_firewall.wireguard&#45;&gt;[root] digitalocean_droplet.dozer</title>
<path fill="none" stroke="black" d="M1546.29,-288.93C1543.67,-288.61 1541.07,-288.3 1538.5,-288 1387.46,-270.25 1212.44,-254.06 1101.86,-244.36"/>
<polygon fill="black" stroke="black" points="1101.96,-240.86 1091.7,-243.47 1101.35,-247.83 1101.96,-240.86"/>
</g>
<!-- [root] digitalocean_firewall.wireguard&#45;&gt;[root] local.all_ips -->
<g id="edge17" class="edge">
<title>[root] digitalocean_firewall.wireguard&#45;&gt;[root] local.all_ips</title>
<path fill="none" stroke="black" d="M1606.75,-287.97C1572.65,-277.36 1528.84,-263.73 1494.21,-252.95"/>
<polygon fill="black" stroke="black" points="1494.82,-249.48 1484.23,-249.85 1492.74,-256.16 1494.82,-249.48"/>
</g>
<!-- [root] provider.digitalocean -->
<g id="node14" class="node">
<title>[root] provider.digitalocean</title>
<polygon fill="none" stroke="black" points="991.5,-108 843.53,-90 991.5,-72 1139.47,-90 991.5,-108"/>
<text text-anchor="middle" x="991.5" y="-86.3" font-family="Times-Roman" font-size="14.00">provider.digitalocean</text>
</g>
<!-- [root] digitalocean_ssh_key.default&#45;&gt;[root] provider.digitalocean -->
<g id="edge18" class="edge">
<title>[root] digitalocean_ssh_key.default&#45;&gt;[root] provider.digitalocean</title>
<path fill="none" stroke="black" d="M991.5,-143.7C991.5,-135.98 991.5,-126.71 991.5,-118.11"/>
<polygon fill="black" stroke="black" points="995,-118.1 991.5,-108.1 988,-118.1 995,-118.1"/>
</g>
<!-- [root] var.cloudflare_api_token -->
<g id="node15" class="node">
<title>[root] var.cloudflare_api_token</title>
<polygon fill="none" stroke="black" points="711,-108 534,-108 534,-72 717,-72 717,-102 711,-108"/>
<polyline fill="none" stroke="black" points="711,-108 711,-102 "/>
<polyline fill="none" stroke="black" points="717,-102 711,-102 "/>
<text text-anchor="middle" x="625.5" y="-86.3" font-family="Times-Roman" font-size="14.00">var.cloudflare_api_token</text>
</g>
<!-- [root] provider.cloudflare&#45;&gt;[root] var.cloudflare_api_token -->
<g id="edge32" class="edge">
<title>[root] provider.cloudflare&#45;&gt;[root] var.cloudflare_api_token</title>
<path fill="none" stroke="black" d="M550.98,-146.5C563.47,-137.19 579.98,-124.9 594.28,-114.25"/>
<polygon fill="black" stroke="black" points="596.47,-116.98 602.4,-108.2 592.29,-111.37 596.47,-116.98"/>
</g>
<!-- [root] var.cloudflare_email -->
<g id="node16" class="node">
<title>[root] var.cloudflare_email</title>
<polygon fill="none" stroke="black" points="510,-108 361,-108 361,-72 516,-72 516,-102 510,-108"/>
<polyline fill="none" stroke="black" points="510,-108 510,-102 "/>
<polyline fill="none" stroke="black" points="516,-102 510,-102 "/>
<text text-anchor="middle" x="438.5" y="-86.3" font-family="Times-Roman" font-size="14.00">var.cloudflare_email</text>
</g>
<!-- [root] provider.cloudflare&#45;&gt;[root] var.cloudflare_email -->
<g id="edge33" class="edge">
<title>[root] provider.cloudflare&#45;&gt;[root] var.cloudflare_email</title>
<path fill="none" stroke="black" d="M512.23,-146.5C499.87,-137.19 483.54,-124.9 469.39,-114.25"/>
<polygon fill="black" stroke="black" points="471.45,-111.42 461.36,-108.2 467.24,-117.01 471.45,-111.42"/>
</g>
<!-- [root] var.digitalocean_api_token -->
<g id="node17" class="node">
<title>[root] var.digitalocean_api_token</title>
<polygon fill="none" stroke="black" points="1085,-36 892,-36 892,0 1091,0 1091,-30 1085,-36"/>
<polyline fill="none" stroke="black" points="1085,-36 1085,-30 "/>
<polyline fill="none" stroke="black" points="1091,-30 1085,-30 "/>
<text text-anchor="middle" x="991.5" y="-14.3" font-family="Times-Roman" font-size="14.00">var.digitalocean_api_token</text>
</g>
<!-- [root] provider.digitalocean&#45;&gt;[root] var.digitalocean_api_token -->
<g id="edge37" class="edge">
<title>[root] provider.digitalocean&#45;&gt;[root] var.digitalocean_api_token</title>
<path fill="none" stroke="black" d="M991.5,-71.7C991.5,-63.98 991.5,-54.71 991.5,-46.11"/>
<polygon fill="black" stroke="black" points="995,-46.1 991.5,-36.1 988,-46.1 995,-46.1"/>
</g>
<!-- [root] meta.count&#45;boundary (EachMode fixup) -->
<g id="node18" class="node">
<title>[root] meta.count&#45;boundary (EachMode fixup)</title>
<ellipse fill="none" stroke="black" cx="973.5" cy="-378" rx="217.96" ry="18"/>
<text text-anchor="middle" x="973.5" y="-374.3" font-family="Times-Roman" font-size="14.00">[root] meta.count&#45;boundary (EachMode fixup)</text>
</g>
<!-- [root] meta.count&#45;boundary (EachMode fixup)&#45;&gt;[root] cloudflare_record.dozer_ipv4 -->
<g id="edge19" class="edge">
<title>[root] meta.count&#45;boundary (EachMode fixup)&#45;&gt;[root] cloudflare_record.dozer_ipv4</title>
<path fill="none" stroke="black" d="M823.8,-364.89C713.74,-355.5 560.29,-341.37 416.55,-324.22"/>
<polygon fill="black" stroke="black" points="416.57,-320.69 406.22,-322.98 415.73,-327.64 416.57,-320.69"/>
</g>
<!-- [root] meta.count&#45;boundary (EachMode fixup)&#45;&gt;[root] cloudflare_record.dozer_ipv6 -->
<g id="edge20" class="edge">
<title>[root] meta.count&#45;boundary (EachMode fixup)&#45;&gt;[root] cloudflare_record.dozer_ipv6</title>
<path fill="none" stroke="black" d="M877.59,-361.81C810.42,-351.17 720.26,-336.89 648.81,-325.58"/>
<polygon fill="black" stroke="black" points="649.28,-322.11 638.85,-324 648.18,-329.02 649.28,-322.11"/>
</g>
<!-- [root] meta.count&#45;boundary (EachMode fixup)&#45;&gt;[root] cloudflare_record.qt_rs_ipv4 -->
<g id="edge21" class="edge">
<title>[root] meta.count&#45;boundary (EachMode fixup)&#45;&gt;[root] cloudflare_record.qt_rs_ipv4</title>
<path fill="none" stroke="black" d="M923.5,-360.41C893.57,-350.48 855.31,-337.79 823.59,-327.27"/>
<polygon fill="black" stroke="black" points="824.57,-323.91 813.98,-324.08 822.37,-330.55 824.57,-323.91"/>
</g>
<!-- [root] meta.count&#45;boundary (EachMode fixup)&#45;&gt;[root] cloudflare_record.qt_rs_ipv6 -->
<g id="edge22" class="edge">
<title>[root] meta.count&#45;boundary (EachMode fixup)&#45;&gt;[root] cloudflare_record.qt_rs_ipv6</title>
<path fill="none" stroke="black" d="M977.95,-359.7C979.95,-351.9 982.37,-342.51 984.6,-333.83"/>
<polygon fill="black" stroke="black" points="988,-334.66 987.1,-324.1 981.22,-332.92 988,-334.66"/>
</g>
<!-- [root] meta.count&#45;boundary (EachMode fixup)&#45;&gt;[root] cloudflare_record.www -->
<g id="edge23" class="edge">
<title>[root] meta.count&#45;boundary (EachMode fixup)&#45;&gt;[root] cloudflare_record.www</title>
<path fill="none" stroke="black" d="M813.71,-365.72C785.97,-363.79 757.4,-361.82 730.5,-360 489.87,-343.69 425.97,-353.31 183.35,-324.15"/>
<polygon fill="black" stroke="black" points="183.51,-320.65 173.16,-322.92 182.67,-327.6 183.51,-320.65"/>
</g>
<!-- [root] meta.count&#45;boundary (EachMode fixup)&#45;&gt;[root] digitalocean_firewall.default -->
<g id="edge24" class="edge">
<title>[root] meta.count&#45;boundary (EachMode fixup)&#45;&gt;[root] digitalocean_firewall.default</title>
<path fill="none" stroke="black" d="M1031.41,-360.59C1067.01,-350.5 1112.86,-337.5 1150.49,-326.84"/>
<polygon fill="black" stroke="black" points="1151.71,-330.13 1160.37,-324.04 1149.8,-323.4 1151.71,-330.13"/>
</g>
<!-- [root] meta.count&#45;boundary (EachMode fixup)&#45;&gt;[root] digitalocean_firewall.ssh -->
<g id="edge25" class="edge">
<title>[root] meta.count&#45;boundary (EachMode fixup)&#45;&gt;[root] digitalocean_firewall.ssh</title>
<path fill="none" stroke="black" d="M1078.24,-362.17C1147.8,-352.19 1241.44,-338.51 1333.85,-324.09"/>
<polygon fill="black" stroke="black" points="1334.61,-327.51 1343.95,-322.51 1333.53,-320.59 1334.61,-327.51"/>
</g>
<!-- [root] meta.count&#45;boundary (EachMode fixup)&#45;&gt;[root] digitalocean_firewall.wireguard -->
<g id="edge26" class="edge">
<title>[root] meta.count&#45;boundary (EachMode fixup)&#45;&gt;[root] digitalocean_firewall.wireguard</title>
<path fill="none" stroke="black" d="M1122.38,-364.83C1233.86,-355.29 1390.36,-341 1536.25,-324.24"/>
<polygon fill="black" stroke="black" points="1536.76,-327.7 1546.29,-323.08 1535.95,-320.75 1536.76,-327.7"/>
</g>
<!-- [root] provider.cloudflare (close) -->
<g id="node19" class="node">
<title>[root] provider.cloudflare (close)</title>
<ellipse fill="none" stroke="black" cx="566.5" cy="-378" rx="154.87" ry="18"/>
<text text-anchor="middle" x="566.5" y="-374.3" font-family="Times-Roman" font-size="14.00">[root] provider.cloudflare (close)</text>
</g>
<!-- [root] provider.cloudflare (close)&#45;&gt;[root] cloudflare_record.dozer_ipv4 -->
<g id="edge27" class="edge">
<title>[root] provider.cloudflare (close)&#45;&gt;[root] cloudflare_record.dozer_ipv4</title>
<path fill="none" stroke="black" d="M506.69,-361.38C467.41,-351.12 415.72,-337.62 373.67,-326.63"/>
<polygon fill="black" stroke="black" points="374.32,-323.19 363.76,-324.04 372.55,-329.96 374.32,-323.19"/>
</g>
<!-- [root] provider.cloudflare (close)&#45;&gt;[root] cloudflare_record.dozer_ipv6 -->
<g id="edge28" class="edge">
<title>[root] provider.cloudflare (close)&#45;&gt;[root] cloudflare_record.dozer_ipv6</title>
<path fill="none" stroke="black" d="M557.85,-359.7C553.86,-351.73 549.05,-342.1 544.63,-333.26"/>
<polygon fill="black" stroke="black" points="547.65,-331.48 540.05,-324.1 541.39,-334.61 547.65,-331.48"/>
</g>
<!-- [root] provider.cloudflare (close)&#45;&gt;[root] cloudflare_record.qt_rs_ipv4 -->
<g id="edge29" class="edge">
<title>[root] provider.cloudflare (close)&#45;&gt;[root] cloudflare_record.qt_rs_ipv4</title>
<path fill="none" stroke="black" d="M611.96,-360.76C639.82,-350.82 675.72,-337.99 705.47,-327.37"/>
<polygon fill="black" stroke="black" points="706.66,-330.66 714.9,-324 704.3,-324.07 706.66,-330.66"/>
</g>
<!-- [root] provider.cloudflare (close)&#45;&gt;[root] cloudflare_record.qt_rs_ipv6 -->
<g id="edge30" class="edge">
<title>[root] provider.cloudflare (close)&#45;&gt;[root] cloudflare_record.qt_rs_ipv6</title>
<path fill="none" stroke="black" d="M651.74,-362.96C716.77,-352.25 806.98,-337.39 878.1,-325.68"/>
<polygon fill="black" stroke="black" points="878.71,-329.12 888.01,-324.05 877.57,-322.22 878.71,-329.12"/>
</g>
<!-- [root] provider.cloudflare (close)&#45;&gt;[root] cloudflare_record.www -->
<g id="edge31" class="edge">
<title>[root] provider.cloudflare (close)&#45;&gt;[root] cloudflare_record.www</title>
<path fill="none" stroke="black" d="M465.82,-364.27C390.55,-354.49 284.87,-340.19 183.33,-324.26"/>
<polygon fill="black" stroke="black" points="183.62,-320.76 173.2,-322.66 182.53,-327.68 183.62,-320.76"/>
</g>
<!-- [root] provider.digitalocean (close) -->
<g id="node20" class="node">
<title>[root] provider.digitalocean (close)</title>
<ellipse fill="none" stroke="black" cx="1405.5" cy="-378" rx="165.17" ry="18"/>
<text text-anchor="middle" x="1405.5" y="-374.3" font-family="Times-Roman" font-size="14.00">[root] provider.digitalocean (close)</text>
</g>
<!-- [root] provider.digitalocean (close)&#45;&gt;[root] digitalocean_firewall.default -->
<g id="edge34" class="edge">
<title>[root] provider.digitalocean (close)&#45;&gt;[root] digitalocean_firewall.default</title>
<path fill="none" stroke="black" d="M1362.13,-360.59C1336.14,-350.76 1302.87,-338.17 1275.1,-327.66"/>
<polygon fill="black" stroke="black" points="1276.13,-324.31 1265.53,-324.04 1273.65,-330.85 1276.13,-324.31"/>
</g>
<!-- [root] provider.digitalocean (close)&#45;&gt;[root] digitalocean_firewall.ssh -->
<g id="edge35" class="edge">
<title>[root] provider.digitalocean (close)&#45;&gt;[root] digitalocean_firewall.ssh</title>
<path fill="none" stroke="black" d="M1413.16,-359.7C1416.69,-351.73 1420.96,-342.1 1424.87,-333.26"/>
<polygon fill="black" stroke="black" points="1428.08,-334.67 1428.93,-324.1 1421.68,-331.83 1428.08,-334.67"/>
</g>
<!-- [root] provider.digitalocean (close)&#45;&gt;[root] digitalocean_firewall.wireguard -->
<g id="edge36" class="edge">
<title>[root] provider.digitalocean (close)&#45;&gt;[root] digitalocean_firewall.wireguard</title>
<path fill="none" stroke="black" d="M1463.59,-361.12C1500.93,-350.91 1549.72,-337.56 1589.52,-326.68"/>
<polygon fill="black" stroke="black" points="1590.44,-330.06 1599.17,-324.04 1588.6,-323.31 1590.44,-330.06"/>
</g>
<!-- [root] root -->
<g id="node21" class="node">
<title>[root] root</title>
<ellipse fill="none" stroke="black" cx="973.5" cy="-450" rx="55.79" ry="18"/>
<text text-anchor="middle" x="973.5" y="-446.3" font-family="Times-Roman" font-size="14.00">[root] root</text>
</g>
<!-- [root] root&#45;&gt;[root] meta.count&#45;boundary (EachMode fixup) -->
<g id="edge38" class="edge">
<title>[root] root&#45;&gt;[root] meta.count&#45;boundary (EachMode fixup)</title>
<path fill="none" stroke="black" d="M973.5,-431.7C973.5,-423.98 973.5,-414.71 973.5,-406.11"/>
<polygon fill="black" stroke="black" points="977,-406.1 973.5,-396.1 970,-406.1 977,-406.1"/>
</g>
<!-- [root] root&#45;&gt;[root] provider.cloudflare (close) -->
<g id="edge39" class="edge">
<title>[root] root&#45;&gt;[root] provider.cloudflare (close)</title>
<path fill="none" stroke="black" d="M925.21,-440.7C859.86,-429.45 741.91,-409.17 659.16,-394.94"/>
<polygon fill="black" stroke="black" points="659.7,-391.48 649.25,-393.23 658.51,-398.38 659.7,-391.48"/>
</g>
<!-- [root] root&#45;&gt;[root] provider.digitalocean (close) -->
<g id="edge40" class="edge">
<title>[root] root&#45;&gt;[root] provider.digitalocean (close)</title>
<path fill="none" stroke="black" d="M1022.22,-441.11C1091.06,-429.95 1218.31,-409.33 1307.23,-394.92"/>
<polygon fill="black" stroke="black" points="1308.03,-398.34 1317.34,-393.29 1306.91,-391.43 1308.03,-398.34"/>
</g>
</g>
</svg>
